<?xml version="1.0" encoding="UTF-8"?>
<svg xmlns="http://www.w3.org/2000/svg" xmlns:xlink="http://www.w3.org/1999/xlink" width="3840px" height="2160px" viewBox="0 0 3840 2160" version="1.1">
<g id="surface1">
<path style=" stroke:none;fill-rule:nonzero;fill:rgb(96.078431%,92.156863%,87.843137%);fill-opacity:1;" d="M 0 196 L 71.25 189 C 142.5 182 285 168 427.125 171.601562 C 569.4375 175.398438 711.1875 196.601562 853.5 196.601562 C 995.625 196.601562 1138.125 175.398438 1280.25 179 C 1422.5625 182.601562 1564.3125 211.398438 1706.625 214.601562 C 1848.75 218 1991.25 196 2133.375 185 C 2275.6875 174 2417.4375 174 2559.75 174 C 2701.875 174 2844.375 174 2986.5 185 C 3128.8125 196 3270.5625 218 3412.875 229 C 3555 240 3697.5 240 3768.75 240 L 3840 240 L 3840 0 L 3768.75 0 C 3697.5 0 3555 0 3412.875 0 C 3270.5625 0 3128.8125 0 2986.5 0 C 2844.375 0 2701.875 0 2559.75 0 C 2417.4375 0 2275.6875 0 2133.375 0 C 1991.25 0 1848.75 0 1706.625 0 C 1564.3125 0 1422.5625 0 1280.25 0 C 1138.125 0 995.625 0 853.5 0 C 711.1875 0 569.4375 0 427.125 0 C 285 0 142.5 0 71.25 0 L 0 0 Z M 0 196 "/>
<path style=" stroke:none;fill-rule:nonzero;fill:rgb(94.901961%,90.588235%,85.882353%);fill-opacity:1;" d="M 0 282 L 71.25 271.398438 C 142.5 260.601562 285 239.398438 427.125 250.398438 C 569.4375 261.398438 711.1875 304.601562 853.5 308.398438 C 995.625 312 1138.125 276 1280.25 268.601562 C 1422.5625 261.398438 1564.3125 282.601562 1706.625 289.601562 C 1848.75 296.601562 1991.25 289.398438 2133.375 278.601562 C 2275.6875 268 2417.4375 254 2559.75 254 C 2701.875 254 2844.375 268 2986.5 282.398438 C 3128.8125 296.601562 3270.5625 311.398438 3412.875 315 C 3555 318.601562 3697.5 311.398438 3768.75 307.601562 L 3840 304 L 3840 236 L 3768.75 236 C 3697.5 236 3555 236 3412.875 225 C 3270.5625 214 3128.8125 192 2986.5 181 C 2844.375 170 2701.875 170 2559.75 170 C 2417.4375 170 2275.6875 170 2133.375 181 C 1991.25 192 1848.75 214 1706.625 210.601562 C 1564.3125 207.398438 1422.5625 178.601562 1280.25 175 C 1138.125 171.398438 995.625 192.601562 853.5 192.601562 C 711.1875 192.601562 569.4375 171.398438 427.125 167.601562 C 285 164 142.5 178 71.25 185 L 0 192 Z M 0 282 "/>
<path style=" stroke:none;fill-rule:nonzero;fill:rgb(93.72549%,89.019608%,84.313725%);fill-opacity:1;" d="M 0 564 L 71.25 549.601562 C 142.5 535.398438 285 506.601562 427.125 506.601562 C 569.4375 506.601562 711.1875 535.398438 853.5 546 C 995.625 556.601562 1138.125 549.398438 1280.25 535 C 1422.5625 520.601562 1564.3125 499.398438 1706.625 495.601562 C 1848.75 492 1991.25 506 2133.375 516.601562 C 2275.6875 527.398438 2417.4375 534.601562 2559.75 552.601562 C 2701.875 570.601562 2844.375 599.398438 2986.5 613.601562 C 3128.8125 628 3270.5625 628 3412.875 621 C 3555 614 3697.5 600 3768.75 593 L 3840 586 L 3840 300 L 3768.75 303.601562 C 3697.5 307.398438 3555 314.601562 3412.875 311 C 3270.5625 307.398438 3128.8125 292.601562 2986.5 278.398438 C 2844.375 264 2701.875 250 2559.75 250 C 2417.4375 250 2275.6875 264 2133.375 274.601562 C 1991.25 285.398438 1848.75 292.601562 1706.625 285.601562 C 1564.3125 278.601562 1422.5625 257.398438 1280.25 264.601562 C 1138.125 272 995.625 308 853.5 304.398438 C 711.1875 300.601562 569.4375 257.398438 427.125 246.398438 C 285 235.398438 142.5 256.601562 71.25 267.398438 L 0 278 Z M 0 564 "/>
<path style=" stroke:none;fill-rule:nonzero;fill:rgb(92.54902%,87.058824%,82.352941%);fill-opacity:1;" d="M 0 1018 L 71.25 989 C 142.5 960 285 902 427.125 898.398438 C 569.4375 894.601562 711.1875 945.398438 853.5 959.601562 C 995.625 974 1138.125 952 1280.25 926.601562 C 1422.5625 901.398438 1564.3125 872.601562 1706.625 858.398438 C 1848.75 844 1991.25 844 2133.375 862 C 2275.6875 880 2417.4375 916 2559.75 941.398438 C 2701.875 966.601562 2844.375 981.398438 2986.5 995.601562 C 3128.8125 1010 3270.5625 1024 3412.875 1042 C 3555 1060 3697.5 1082 3768.75 1093 L 3840 1104 L 3840 582 L 3768.75 589 C 3697.5 596 3555 610 3412.875 617 C 3270.5625 624 3128.8125 624 2986.5 609.601562 C 2844.375 595.398438 2701.875 566.601562 2559.75 548.601562 C 2417.4375 530.601562 2275.6875 523.398438 2133.375 512.601562 C 1991.25 502 1848.75 488 1706.625 491.601562 C 1564.3125 495.398438 1422.5625 516.601562 1280.25 531 C 1138.125 545.398438 995.625 552.601562 853.5 542 C 711.1875 531.398438 569.4375 502.601562 427.125 502.601562 C 285 502.601562 142.5 531.398438 71.25 545.601562 L 0 560 Z M 0 1018 "/>
<path style=" stroke:none;fill-rule:nonzero;fill:rgb(91.372549%,85.490196%,80.784314%);fill-opacity:1;" d="M 0 1320 L 71.25 1330.601562 C 142.5 1341.398438 285 1362.601562 427.125 1380.601562 C 569.4375 1398.601562 711.1875 1413.398438 853.5 1409.601562 C 995.625 1406 1138.125 1384 1280.25 1369.601562 C 1422.5625 1355.398438 1564.3125 1348.601562 1706.625 1334.398438 C 1848.75 1320 1991.25 1298 2133.375 1308.601562 C 2275.6875 1319.398438 2417.4375 1362.601562 2559.75 1388 C 2701.875 1413.398438 2844.375 1420.601562 2986.5 1424.398438 C 3128.8125 1428 3270.5625 1428 3412.875 1417 C 3555 1406 3697.5 1384 3768.75 1373 L 3840 1362 L 3840 1100 L 3768.75 1089 C 3697.5 1078 3555 1056 3412.875 1038 C 3270.5625 1020 3128.8125 1006 2986.5 991.601562 C 2844.375 977.398438 2701.875 962.601562 2559.75 937.398438 C 2417.4375 912 2275.6875 876 2133.375 858 C 1991.25 840 1848.75 840 1706.625 854.398438 C 1564.3125 868.601562 1422.5625 897.398438 1280.25 922.601562 C 1138.125 948 995.625 970 853.5 955.601562 C 711.1875 941.398438 569.4375 890.601562 427.125 894.398438 C 285 898 142.5 956 71.25 985 L 0 1014 Z M 0 1320 "/>
<path style=" stroke:none;fill-rule:nonzero;fill:rgb(90.196078%,83.921569%,78.823529%);fill-opacity:1;" d="M 0 1470 L 71.25 1470 C 142.5 1470 285 1470 427.125 1481 C 569.4375 1492 711.1875 1514 853.5 1510.601562 C 995.625 1507.398438 1138.125 1478.601562 1280.25 1471.398438 C 1422.5625 1464 1564.3125 1478 1706.625 1474.398438 C 1848.75 1470.601562 1991.25 1449.398438 2133.375 1453 C 2275.6875 1456.601562 2417.4375 1485.398438 2559.75 1507 C 2701.875 1528.601562 2844.375 1543.398438 2986.5 1547 C 3128.8125 1550.601562 3270.5625 1543.398438 3412.875 1532.398438 C 3555 1521.398438 3697.5 1506.601562 3768.75 1499.398438 L 3840 1492 L 3840 1358 L 3768.75 1369 C 3697.5 1380 3555 1402 3412.875 1413 C 3270.5625 1424 3128.8125 1424 2986.5 1420.398438 C 2844.375 1416.601562 2701.875 1409.398438 2559.75 1384 C 2417.4375 1358.601562 2275.6875 1315.398438 2133.375 1304.601562 C 1991.25 1294 1848.75 1316 1706.625 1330.398438 C 1564.3125 1344.601562 1422.5625 1351.398438 1280.25 1365.601562 C 1138.125 1380 995.625 1402 853.5 1405.601562 C 711.1875 1409.398438 569.4375 1394.601562 427.125 1376.601562 C 285 1358.601562 142.5 1337.398438 71.25 1326.601562 L 0 1316 Z M 0 1470 "/>
<path style=" stroke:none;fill-rule:nonzero;fill:rgb(89.411765%,82.352941%,77.254902%);fill-opacity:1;" d="M 0 1644 L 71.25 1636.601562 C 142.5 1629.398438 285 1614.601562 427.125 1614.601562 C 569.4375 1614.601562 711.1875 1629.398438 853.5 1636.601562 C 995.625 1644 1138.125 1644 1280.25 1640.398438 C 1422.5625 1636.601562 1564.3125 1629.398438 1706.625 1625.601562 C 1848.75 1622 1991.25 1622 2133.375 1629.398438 C 2275.6875 1636.601562 2417.4375 1651.398438 2559.75 1658.601562 C 2701.875 1666 2844.375 1666 2986.5 1666 C 3128.8125 1666 3270.5625 1666 3412.875 1662.398438 C 3555 1658.601562 3697.5 1651.398438 3768.75 1647.601562 L 3840 1644 L 3840 1488 L 3768.75 1495.398438 C 3697.5 1502.601562 3555 1517.398438 3412.875 1528.398438 C 3270.5625 1539.398438 3128.8125 1546.601562 2986.5 1543 C 2844.375 1539.398438 2701.875 1524.601562 2559.75 1503 C 2417.4375 1481.398438 2275.6875 1452.601562 2133.375 1449 C 1991.25 1445.398438 1848.75 1466.601562 1706.625 1470.398438 C 1564.3125 1474 1422.5625 1460 1280.25 1467.398438 C 1138.125 1474.601562 995.625 1503.398438 853.5 1506.601562 C 711.1875 1510 569.4375 1488 427.125 1477 C 285 1466 142.5 1466 71.25 1466 L 0 1466 Z M 0 1644 "/>
<path style=" stroke:none;fill-rule:nonzero;fill:rgb(88.235294%,80.784314%,75.294118%);fill-opacity:1;" d="M 0 1708 L 71.25 1701 C 142.5 1694 285 1680 427.125 1683.601562 C 569.4375 1687.398438 711.1875 1708.601562 853.5 1723 C 995.625 1737.398438 1138.125 1744.601562 1280.25 1737.398438 C 1422.5625 1730 1564.3125 1708 1706.625 1700.601562 C 1848.75 1693.398438 1991.25 1700.601562 2133.375 1711.601562 C 2275.6875 1722.601562 2417.4375 1737.398438 2559.75 1744.601562 C 2701.875 1752 2844.375 1752 2986.5 1752 C 3128.8125 1752 3270.5625 1752 3412.875 1752 C 3555 1752 3697.5 1752 3768.75 1752 L 3840 1752 L 3840 1640 L 3768.75 1643.601562 C 3697.5 1647.398438 3555 1654.601562 3412.875 1658.398438 C 3270.5625 1662 3128.8125 1662 2986.5 1662 C 2844.375 1662 2701.875 1662 2559.75 1654.601562 C 2417.4375 1647.398438 2275.6875 1632.601562 2133.375 1625.398438 C 1991.25 1618 1848.75 1618 1706.625 1621.601562 C 1564.3125 1625.398438 1422.5625 1632.601562 1280.25 1636.398438 C 1138.125 1640 995.625 1640 853.5 1632.601562 C 711.1875 1625.398438 569.4375 1610.601562 427.125 1610.601562 C 285 1610.601562 142.5 1625.398438 71.25 1632.601562 L 0 1640 Z M 0 1708 "/>
<path style=" stroke:none;fill-rule:nonzero;fill:rgb(87.058824%,79.215686%,73.72549%);fill-opacity:1;" d="M 0 1882 L 71.25 1874.601562 C 142.5 1867.398438 285 1852.601562 427.125 1852.601562 C 569.4375 1852.601562 711.1875 1867.398438 853.5 1874.601562 C 995.625 1882 1138.125 1882 1280.25 1874.601562 C 1422.5625 1867.398438 1564.3125 1852.601562 1706.625 1849 C 1848.75 1845.398438 1991.25 1852.601562 2133.375 1856.398438 C 2275.6875 1860 2417.4375 1860 2559.75 1863.601562 C 2701.875 1867.398438 2844.375 1874.601562 2986.5 1874.601562 C 3128.8125 1874.601562 3270.5625 1867.398438 3412.875 1867.398438 C 3555 1867.398438 3697.5 1874.601562 3768.75 1878.398438 L 3840 1882 L 3840 1748 L 3768.75 1748 C 3697.5 1748 3555 1748 3412.875 1748 C 3270.5625 1748 3128.8125 1748 2986.5 1748 C 2844.375 1748 2701.875 1748 2559.75 1740.601562 C 2417.4375 1733.398438 2275.6875 1718.601562 2133.375 1707.601562 C 1991.25 1696.601562 1848.75 1689.398438 1706.625 1696.601562 C 1564.3125 1704 1422.5625 1726 1280.25 1733.398438 C 1138.125 1740.601562 995.625 1733.398438 853.5 1719 C 711.1875 1704.601562 569.4375 1683.398438 427.125 1679.601562 C 285 1676 142.5 1690 71.25 1697 L 0 1704 Z M 0 1882 "/>
<path style=" stroke:none;fill-rule:nonzero;fill:rgb(85.882353%,77.254902%,72.156863%);fill-opacity:1;" d="M 0 1968 L 71.25 1964.398438 C 142.5 1960.601562 285 1953.398438 427.125 1953.398438 C 569.4375 1953.398438 711.1875 1960.601562 853.5 1964.398438 C 995.625 1968 1138.125 1968 1280.25 1964.398438 C 1422.5625 1960.601562 1564.3125 1953.398438 1706.625 1953.398438 C 1848.75 1953.398438 1991.25 1960.601562 2133.375 1964.398438 C 2275.6875 1968 2417.4375 1968 2559.75 1971.601562 C 2701.875 1975.398438 2844.375 1982.601562 2986.5 1982.601562 C 3128.8125 1982.601562 3270.5625 1975.398438 3412.875 1975.398438 C 3555 1975.398438 3697.5 1982.601562 3768.75 1986.398438 L 3840 1990 L 3840 1878 L 3768.75 1874.398438 C 3697.5 1870.601562 3555 1863.398438 3412.875 1863.398438 C 3270.5625 1863.398438 3128.8125 1870.601562 2986.5 1870.601562 C 2844.375 1870.601562 2701.875 1863.398438 2559.75 1859.601562 C 2417.4375 1856 2275.6875 1856 2133.375 1852.398438 C 1991.25 1848.601562 1848.75 1841.398438 1706.625 1845 C 1564.3125 1848.601562 1422.5625 1863.398438 1280.25 1870.601562 C 1138.125 1878 995.625 1878 853.5 1870.601562 C 711.1875 1863.398438 569.4375 1848.601562 427.125 1848.601562 C 285 1848.601562 142.5 1863.398438 71.25 1870.601562 L 0 1878 Z M 0 1968 "/>
<path style=" stroke:none;fill-rule:nonzero;fill:rgb(84.705882%,75.686275%,70.196078%);fill-opacity:1;" d="M 0 2032 L 71.25 2032 C 142.5 2032 285 2032 427.125 2035.601562 C 569.4375 2039.398438 711.1875 2046.601562 853.5 2046.601562 C 995.625 2046.601562 1138.125 2039.398438 1280.25 2035.601562 C 1422.5625 2032 1564.3125 2032 1706.625 2032 C 1848.75 2032 1991.25 2032 2133.375 2035.601562 C 2275.6875 2039.398438 2417.4375 2046.601562 2559.75 2050.398438 C 2701.875 2054 2844.375 2054 2986.5 2050.398438 C 3128.8125 2046.601562 3270.5625 2039.398438 3412.875 2043 C 3555 2046.601562 3697.5 2061.398438 3768.75 2068.601562 L 3840 2076 L 3840 1986 L 3768.75 1982.398438 C 3697.5 1978.601562 3555 1971.398438 3412.875 1971.398438 C 3270.5625 1971.398438 3128.8125 1978.601562 2986.5 1978.601562 C 2844.375 1978.601562 2701.875 1971.398438 2559.75 1967.601562 C 2417.4375 1964 2275.6875 1964 2133.375 1960.398438 C 1991.25 1956.601562 1848.75 1949.398438 1706.625 1949.398438 C 1564.3125 1949.398438 1422.5625 1956.601562 1280.25 1960.398438 C 1138.125 1964 995.625 1964 853.5 1960.398438 C 711.1875 1956.601562 569.4375 1949.398438 427.125 1949.398438 C 285 1949.398438 142.5 1956.601562 71.25 1960.398438 L 0 1964 Z M 0 2032 "/>
<path style=" stroke:none;fill-rule:nonzero;fill:rgb(83.529412%,74.117647%,68.627451%);fill-opacity:1;" d="M 0 2162 L 71.25 2162 C 142.5 2162 285 2162 427.125 2162 C 569.4375 2162 711.1875 2162 853.5 2162 C 995.625 2162 1138.125 2162 1280.25 2162 C 1422.5625 2162 1564.3125 2162 1706.625 2162 C 1848.75 2162 1991.25 2162 2133.375 2162 C 2275.6875 2162 2417.4375 2162 2559.75 2162 C 2701.875 2162 2844.375 2162 2986.5 2162 C 3128.8125 2162 3270.5625 2162 3412.875 2162 C 3555 2162 3697.5 2162 3768.75 2162 L 3840 2162 L 3840 2072 L 3768.75 2064.601562 C 3697.5 2057.398438 3555 2042.601562 3412.875 2039 C 3270.5625 2035.398438 3128.8125 2042.601562 2986.5 2046.398438 C 2844.375 2050 2701.875 2050 2559.75 2046.398438 C 2417.4375 2042.601562 2275.6875 2035.398438 2133.375 2031.601562 C 1991.25 2028 1848.75 2028 1706.625 2028 C 1564.3125 2028 1422.5625 2028 1280.25 2031.601562 C 1138.125 2035.398438 995.625 2042.601562 853.5 2042.601562 C 711.1875 2042.601562 569.4375 2035.398438 427.125 2031.601562 C 285 2028 142.5 2028 71.25 2028 L 0 2028 Z M 0 2162 "/>
</g>
</svg>
