<svg id="visual" viewBox="0 0 2048 1080" preserveAspectRatio="xMidYMin slice" width="2048" height="1080" xmlns="http://www.w3.org/2000/svg" xmlns:xlink="http://www.w3.org/1999/xlink" version="1.1"><path d="M0 98L38 94.5C76 91 152 84 227.8 85.8C303.7 87.7 379.3 98.3 455.2 98.3C531 98.3 607 87.7 682.8 89.5C758.7 91.3 834.3 105.7 910.2 107.3C986 109 1062 98 1137.8 92.5C1213.7 87 1289.3 87 1365.2 87C1441 87 1517 87 1592.8 92.5C1668.7 98 1744.3 109 1820.2 114.5C1896 120 1972 120 2010 120L2048 120L2048 0L2010 0C1972 0 1896 0 1820.2 0C1744.3 0 1668.7 0 1592.8 0C1517 0 1441 0 1365.2 0C1289.3 0 1213.7 0 1137.8 0C1062 0 986 0 910.2 0C834.3 0 758.7 0 682.8 0C607 0 531 0 455.2 0C379.3 0 303.7 0 227.8 0C152 0 76 0 38 0L0 0Z" fill="#f5ebe0"></path><path d="M0 141L38 135.7C76 130.3 152 119.7 227.8 125.2C303.7 130.7 379.3 152.3 455.2 154.2C531 156 607 138 682.8 134.3C758.7 130.7 834.3 141.3 910.2 144.8C986 148.3 1062 144.7 1137.8 139.3C1213.7 134 1289.3 127 1365.2 127C1441 127 1517 134 1592.8 141.2C1668.7 148.3 1744.3 155.7 1820.2 157.5C1896 159.3 1972 155.7 2010 153.8L2048 152L2048 118L2010 118C1972 118 1896 118 1820.2 112.5C1744.3 107 1668.7 96 1592.8 90.5C1517 85 1441 85 1365.2 85C1289.3 85 1213.7 85 1137.8 90.5C1062 96 986 107 910.2 105.3C834.3 103.7 758.7 89.3 682.8 87.5C607 85.7 531 96.3 455.2 96.3C379.3 96.3 303.7 85.7 227.8 83.8C152 82 76 89 38 92.5L0 96Z" fill="#f2e7db"></path><path d="M0 282L38 274.8C76 267.7 152 253.3 227.8 253.3C303.7 253.3 379.3 267.7 455.2 273C531 278.3 607 274.7 682.8 267.5C758.7 260.3 834.3 249.7 910.2 247.8C986 246 1062 253 1137.8 258.3C1213.7 263.7 1289.3 267.3 1365.2 276.3C1441 285.3 1517 299.7 1592.8 306.8C1668.7 314 1744.3 314 1820.2 310.5C1896 307 1972 300 2010 296.5L2048 293L2048 150L2010 151.8C1972 153.7 1896 157.3 1820.2 155.5C1744.3 153.7 1668.7 146.3 1592.8 139.2C1517 132 1441 125 1365.2 125C1289.3 125 1213.7 132 1137.8 137.3C1062 142.7 986 146.3 910.2 142.8C834.3 139.3 758.7 128.7 682.8 132.3C607 136 531 154 455.2 152.2C379.3 150.3 303.7 128.7 227.8 123.2C152 117.7 76 128.3 38 133.7L0 139Z" fill="#efe3d7"></path><path d="M0 509L38 494.5C76 480 152 451 227.8 449.2C303.7 447.3 379.3 472.7 455.2 479.8C531 487 607 476 682.8 463.3C758.7 450.7 834.3 436.3 910.2 429.2C986 422 1062 422 1137.8 431C1213.7 440 1289.3 458 1365.2 470.7C1441 483.3 1517 490.7 1592.8 497.8C1668.7 505 1744.3 512 1820.2 521C1896 530 1972 541 2010 546.5L2048 552L2048 291L2010 294.5C1972 298 1896 305 1820.2 308.5C1744.3 312 1668.7 312 1592.8 304.8C1517 297.7 1441 283.3 1365.2 274.3C1289.3 265.3 1213.7 261.7 1137.8 256.3C1062 251 986 244 910.2 245.8C834.3 247.7 758.7 258.3 682.8 265.5C607 272.7 531 276.3 455.2 271C379.3 265.7 303.7 251.3 227.8 251.3C152 251.3 76 265.7 38 272.8L0 280Z" fill="#ecded2"></path><path d="M0 660L38 665.3C76 670.7 152 681.3 227.8 690.3C303.7 699.3 379.3 706.7 455.2 704.8C531 703 607 692 682.8 684.8C758.7 677.7 834.3 674.3 910.2 667.2C986 660 1062 649 1137.8 654.3C1213.7 659.7 1289.3 681.3 1365.2 694C1441 706.7 1517 710.3 1592.8 712.2C1668.7 714 1744.3 714 1820.2 708.5C1896 703 1972 692 2010 686.5L2048 681L2048 550L2010 544.5C1972 539 1896 528 1820.2 519C1744.3 510 1668.7 503 1592.8 495.8C1517 488.7 1441 481.3 1365.2 468.7C1289.3 456 1213.7 438 1137.8 429C1062 420 986 420 910.2 427.2C834.3 434.3 758.7 448.7 682.8 461.3C607 474 531 485 455.2 477.8C379.3 470.7 303.7 445.3 227.8 447.2C152 449 76 478 38 492.5L0 507Z" fill="#e9dace"></path><path d="M0 735L38 735C76 735 152 735 227.8 740.5C303.7 746 379.3 757 455.2 755.3C531 753.7 607 739.3 682.8 735.7C758.7 732 834.3 739 910.2 737.2C986 735.3 1062 724.7 1137.8 726.5C1213.7 728.3 1289.3 742.7 1365.2 753.5C1441 764.3 1517 771.7 1592.8 773.5C1668.7 775.3 1744.3 771.7 1820.2 766.2C1896 760.7 1972 753.3 2010 749.7L2048 746L2048 679L2010 684.5C1972 690 1896 701 1820.2 706.5C1744.3 712 1668.7 712 1592.8 710.2C1517 708.3 1441 704.7 1365.2 692C1289.3 679.3 1213.7 657.7 1137.8 652.3C1062 647 986 658 910.2 665.2C834.3 672.3 758.7 675.7 682.8 682.8C607 690 531 701 455.2 702.8C379.3 704.7 303.7 697.3 227.8 688.3C152 679.3 76 668.7 38 663.3L0 658Z" fill="#e6d6c9"></path><path d="M0 822L38 818.3C76 814.7 152 807.3 227.8 807.3C303.7 807.3 379.3 814.7 455.2 818.3C531 822 607 822 682.8 820.2C758.7 818.3 834.3 814.7 910.2 812.8C986 811 1062 811 1137.8 814.7C1213.7 818.3 1289.3 825.7 1365.2 829.3C1441 833 1517 833 1592.8 833C1668.7 833 1744.3 833 1820.2 831.2C1896 829.3 1972 825.7 2010 823.8L2048 822L2048 744L2010 747.7C1972 751.3 1896 758.7 1820.2 764.2C1744.3 769.7 1668.7 773.3 1592.8 771.5C1517 769.7 1441 762.3 1365.2 751.5C1289.3 740.7 1213.7 726.3 1137.8 724.5C1062 722.7 986 733.3 910.2 735.2C834.3 737 758.7 730 682.8 733.7C607 737.3 531 751.7 455.2 753.3C379.3 755 303.7 744 227.8 738.5C152 733 76 733 38 733L0 733Z" fill="#e4d2c5"></path><path d="M0 854L38 850.5C76 847 152 840 227.8 841.8C303.7 843.7 379.3 854.3 455.2 861.5C531 868.7 607 872.3 682.8 868.7C758.7 865 834.3 854 910.2 850.3C986 846.7 1062 850.3 1137.8 855.8C1213.7 861.3 1289.3 868.7 1365.2 872.3C1441 876 1517 876 1592.8 876C1668.7 876 1744.3 876 1820.2 876C1896 876 1972 876 2010 876L2048 876L2048 820L2010 821.8C1972 823.7 1896 827.3 1820.2 829.2C1744.3 831 1668.7 831 1592.8 831C1517 831 1441 831 1365.2 827.3C1289.3 823.7 1213.7 816.3 1137.8 812.7C1062 809 986 809 910.2 810.8C834.3 812.7 758.7 816.3 682.8 818.2C607 820 531 820 455.2 816.3C379.3 812.7 303.7 805.3 227.8 805.3C152 805.3 76 812.7 38 816.3L0 820Z" fill="#e1cec0"></path><path d="M0 941L38 937.3C76 933.7 152 926.3 227.8 926.3C303.7 926.3 379.3 933.7 455.2 937.3C531 941 607 941 682.8 937.3C758.7 933.7 834.3 926.3 910.2 924.5C986 922.7 1062 926.3 1137.8 928.2C1213.7 930 1289.3 930 1365.2 931.8C1441 933.7 1517 937.3 1592.8 937.3C1668.7 937.3 1744.3 933.7 1820.2 933.7C1896 933.7 1972 937.3 2010 939.2L2048 941L2048 874L2010 874C1972 874 1896 874 1820.2 874C1744.3 874 1668.7 874 1592.8 874C1517 874 1441 874 1365.2 870.3C1289.3 866.7 1213.7 859.3 1137.8 853.8C1062 848.3 986 844.7 910.2 848.3C834.3 852 758.7 863 682.8 866.7C607 870.3 531 866.7 455.2 859.5C379.3 852.3 303.7 841.7 227.8 839.8C152 838 76 845 38 848.5L0 852Z" fill="#decabc"></path><path d="M0 984L38 982.2C76 980.3 152 976.7 227.8 976.7C303.7 976.7 379.3 980.3 455.2 982.2C531 984 607 984 682.8 982.2C758.7 980.3 834.3 976.7 910.2 976.7C986 976.7 1062 980.3 1137.8 982.2C1213.7 984 1289.3 984 1365.2 985.8C1441 987.7 1517 991.3 1592.8 991.3C1668.7 991.3 1744.3 987.7 1820.2 987.7C1896 987.7 1972 991.3 2010 993.2L2048 995L2048 939L2010 937.2C1972 935.3 1896 931.7 1820.2 931.7C1744.3 931.7 1668.7 935.3 1592.8 935.3C1517 935.3 1441 931.7 1365.2 929.8C1289.3 928 1213.7 928 1137.8 926.2C1062 924.3 986 920.7 910.2 922.5C834.3 924.3 758.7 931.7 682.8 935.3C607 939 531 939 455.2 935.3C379.3 931.7 303.7 924.3 227.8 924.3C152 924.3 76 931.7 38 935.3L0 939Z" fill="#dbc5b8"></path><path d="M0 1016L38 1016C76 1016 152 1016 227.8 1017.8C303.7 1019.7 379.3 1023.3 455.2 1023.3C531 1023.3 607 1019.7 682.8 1017.8C758.7 1016 834.3 1016 910.2 1016C986 1016 1062 1016 1137.8 1017.8C1213.7 1019.7 1289.3 1023.3 1365.2 1025.2C1441 1027 1517 1027 1592.8 1025.2C1668.7 1023.3 1744.3 1019.7 1820.2 1021.5C1896 1023.3 1972 1030.7 2010 1034.3L2048 1038L2048 993L2010 991.2C1972 989.3 1896 985.7 1820.2 985.7C1744.3 985.7 1668.7 989.3 1592.8 989.3C1517 989.3 1441 985.7 1365.2 983.8C1289.3 982 1213.7 982 1137.8 980.2C1062 978.3 986 974.7 910.2 974.7C834.3 974.7 758.7 978.3 682.8 980.2C607 982 531 982 455.2 980.2C379.3 978.3 303.7 974.7 227.8 974.7C152 974.7 76 978.3 38 980.2L0 982Z" fill="#d8c1b3"></path><path d="M0 1081L38 1081C76 1081 152 1081 227.8 1081C303.7 1081 379.3 1081 455.2 1081C531 1081 607 1081 682.8 1081C758.7 1081 834.3 1081 910.2 1081C986 1081 1062 1081 1137.8 1081C1213.7 1081 1289.3 1081 1365.2 1081C1441 1081 1517 1081 1592.8 1081C1668.7 1081 1744.3 1081 1820.2 1081C1896 1081 1972 1081 2010 1081L2048 1081L2048 1036L2010 1032.3C1972 1028.7 1896 1021.3 1820.2 1019.5C1744.3 1017.7 1668.7 1021.3 1592.8 1023.2C1517 1025 1441 1025 1365.2 1023.2C1289.3 1021.3 1213.7 1017.7 1137.8 1015.8C1062 1014 986 1014 910.2 1014C834.3 1014 758.7 1014 682.8 1015.8C607 1017.7 531 1021.3 455.2 1021.3C379.3 1021.3 303.7 1017.7 227.8 1015.8C152 1014 76 1014 38 1014L0 1014Z" fill="#d5bdaf"></path></svg>